<svg xmlns="http://www.w3.org/2000/svg" xmlns:xlink="http://www.w3.org/1999/xlink" width="1920" zoomAndPan="magnify" viewBox="0 0 1440 809.999993" height="1080" preserveAspectRatio="xMidYMid meet" version="1.0"><defs><clipPath id="dcd5055ed2"><path d="M 237.574219 0 L 540.535156 0 L 540.535156 260.261719 L 237.574219 260.261719 Z M 237.574219 0 " clip-rule="nonzero"/></clipPath><clipPath id="62852aa648"><path d="M 540.425781 130.132812 L 464.710938 260.261719 L 313.289062 260.261719 L 237.574219 130.132812 L 313.289062 0 L 464.710938 0 Z M 540.425781 130.132812 " clip-rule="nonzero"/></clipPath><clipPath id="efbe697c89"><path d="M 0.574219 0 L 303.441406 0 L 303.441406 260.261719 L 0.574219 260.261719 Z M 0.574219 0 " clip-rule="nonzero"/></clipPath><clipPath id="d66d095e54"><path d="M 303.425781 130.132812 L 227.710938 260.261719 L 76.289062 260.261719 L 0.574219 130.132812 L 76.289062 0 L 227.710938 0 Z M 303.425781 130.132812 " clip-rule="nonzero"/></clipPath><clipPath id="3dc56eeb57"><rect x="0" width="304" y="0" height="261"/></clipPath><clipPath id="9a0fb8708e"><path d="M 474.210938 137.21875 L 777.175781 137.21875 L 777.175781 397.480469 L 474.210938 397.480469 Z M 474.210938 137.21875 " clip-rule="nonzero"/></clipPath><clipPath id="8df0e18ade"><path d="M 777.0625 267.347656 L 701.351562 397.480469 L 549.925781 397.480469 L 474.210938 267.347656 L 549.925781 137.21875 L 701.351562 137.21875 Z M 777.0625 267.347656 " clip-rule="nonzero"/></clipPath><clipPath id="e1b3008322"><path d="M 0.210938 0.21875 L 303.078125 0.21875 L 303.078125 260.480469 L 0.210938 260.480469 Z M 0.210938 0.21875 " clip-rule="nonzero"/></clipPath><clipPath id="bd637d0596"><path d="M 303.0625 130.347656 L 227.351562 260.480469 L 75.925781 260.480469 L 0.210938 130.347656 L 75.925781 0.21875 L 227.351562 0.21875 Z M 303.0625 130.347656 " clip-rule="nonzero"/></clipPath><clipPath id="6f6e62f2fc"><rect x="0" width="304" y="0" height="261"/></clipPath><clipPath id="75db4fad6d"><path d="M 474.210938 411.644531 L 777.175781 411.644531 L 777.175781 671.90625 L 474.210938 671.90625 Z M 474.210938 411.644531 " clip-rule="nonzero"/></clipPath><clipPath id="9d5f44b6ca"><path d="M 777.0625 541.773438 L 701.351562 671.90625 L 549.925781 671.90625 L 474.210938 541.773438 L 549.925781 411.644531 L 701.351562 411.644531 Z M 777.0625 541.773438 " clip-rule="nonzero"/></clipPath><clipPath id="ae802b33a3"><path d="M 0.210938 0.644531 L 303.078125 0.644531 L 303.078125 260.90625 L 0.210938 260.90625 Z M 0.210938 0.644531 " clip-rule="nonzero"/></clipPath><clipPath id="3ac758162a"><path d="M 303.0625 130.773438 L 227.351562 260.90625 L 75.925781 260.90625 L 0.210938 130.773438 L 75.925781 0.644531 L 227.351562 0.644531 Z M 303.0625 130.773438 " clip-rule="nonzero"/></clipPath><clipPath id="edc69e39ec"><rect x="0" width="304" y="0" height="261"/></clipPath><clipPath id="88ccc88cfe"><path d="M 237.574219 549.738281 L 540.535156 549.738281 L 540.535156 810 L 237.574219 810 Z M 237.574219 549.738281 " clip-rule="nonzero"/></clipPath><clipPath id="e1df6c8053"><path d="M 540.425781 679.867188 L 464.710938 810 L 313.289062 810 L 237.574219 679.867188 L 313.289062 549.738281 L 464.710938 549.738281 Z M 540.425781 679.867188 " clip-rule="nonzero"/></clipPath><clipPath id="37d1f6bca6"><path d="M 0.574219 0.738281 L 303.441406 0.738281 L 303.441406 261 L 0.574219 261 Z M 0.574219 0.738281 " clip-rule="nonzero"/></clipPath><clipPath id="5428d36ea2"><path d="M 303.425781 130.867188 L 227.710938 261 L 76.289062 261 L 0.574219 130.867188 L 76.289062 0.738281 L 227.710938 0.738281 Z M 303.425781 130.867188 " clip-rule="nonzero"/></clipPath><clipPath id="a6c4f1ef71"><rect x="0" width="304" y="0" height="261"/></clipPath><clipPath id="0e6adaf990"><path d="M 0.9375 411.644531 L 303.898438 411.644531 L 303.898438 671.90625 L 0.9375 671.90625 Z M 0.9375 411.644531 " clip-rule="nonzero"/></clipPath><clipPath id="eaba157fec"><path d="M 303.789062 541.773438 L 228.074219 671.90625 L 76.648438 671.90625 L 0.9375 541.773438 L 76.648438 411.644531 L 228.074219 411.644531 Z M 303.789062 541.773438 " clip-rule="nonzero"/></clipPath><clipPath id="77412b7a85"><path d="M 0.9375 0.644531 L 303.800781 0.644531 L 303.800781 260.90625 L 0.9375 260.90625 Z M 0.9375 0.644531 " clip-rule="nonzero"/></clipPath><clipPath id="ad29adb460"><path d="M 303.789062 130.773438 L 228.074219 260.90625 L 76.648438 260.90625 L 0.9375 130.773438 L 76.648438 0.644531 L 228.074219 0.644531 Z M 303.789062 130.773438 " clip-rule="nonzero"/></clipPath><clipPath id="32ff69bfe9"><rect x="0" width="304" y="0" height="261"/></clipPath><clipPath id="680b97ed69"><path d="M 0.9375 137.21875 L 303.898438 137.21875 L 303.898438 397.480469 L 0.9375 397.480469 Z M 0.9375 137.21875 " clip-rule="nonzero"/></clipPath><clipPath id="36792be39f"><path d="M 303.789062 267.347656 L 228.074219 397.480469 L 76.648438 397.480469 L 0.9375 267.347656 L 76.648438 137.21875 L 228.074219 137.21875 Z M 303.789062 267.347656 " clip-rule="nonzero"/></clipPath><clipPath id="ccbaebbcde"><path d="M 0.9375 0.21875 L 303.800781 0.21875 L 303.800781 260.480469 L 0.9375 260.480469 Z M 0.9375 0.21875 " clip-rule="nonzero"/></clipPath><clipPath id="8e4134b7b0"><path d="M 303.789062 130.347656 L 228.074219 260.480469 L 76.648438 260.480469 L 0.9375 130.347656 L 76.648438 0.21875 L 228.074219 0.21875 Z M 303.789062 130.347656 " clip-rule="nonzero"/></clipPath><clipPath id="993ed246e5"><rect x="0" width="304" y="0" height="261"/></clipPath><clipPath id="a1f8f798da"><rect x="0" width="778" y="0" height="810"/></clipPath></defs><g transform="matrix(1, 0, 0, 1, 331, 0.000000000000039746)"><g clip-path="url(#a1f8f798da)"><g clip-path="url(#dcd5055ed2)"><g clip-path="url(#62852aa648)"><g transform="matrix(1, 0, 0, 1, 237, 0.000000000000039746)"><g clip-path="url(#3dc56eeb57)"><g clip-path="url(#efbe697c89)"><g clip-path="url(#d66d095e54)"><path fill="#0cc0df" d="M 0.574219 0 L 303.535156 0 L 303.535156 260.261719 L 0.574219 260.261719 Z M 0.574219 0 " fill-opacity="1" fill-rule="nonzero"/></g></g></g></g></g></g><g clip-path="url(#9a0fb8708e)"><g clip-path="url(#8df0e18ade)"><g transform="matrix(1, 0, 0, 1, 474, 137)"><g clip-path="url(#6f6e62f2fc)"><g clip-path="url(#e1b3008322)"><g clip-path="url(#bd637d0596)"><path fill="#0cc0df" d="M 0.210938 0.21875 L 303.175781 0.21875 L 303.175781 260.480469 L 0.210938 260.480469 Z M 0.210938 0.21875 " fill-opacity="1" fill-rule="nonzero"/></g></g></g></g></g></g><g clip-path="url(#75db4fad6d)"><g clip-path="url(#9d5f44b6ca)"><g transform="matrix(1, 0, 0, 1, 474, 411)"><g clip-path="url(#edc69e39ec)"><g clip-path="url(#ae802b33a3)"><g clip-path="url(#3ac758162a)"><path fill="#0cc0df" d="M 0.210938 0.644531 L 303.175781 0.644531 L 303.175781 260.90625 L 0.210938 260.90625 Z M 0.210938 0.644531 " fill-opacity="1" fill-rule="nonzero"/></g></g></g></g></g></g><g clip-path="url(#88ccc88cfe)"><g clip-path="url(#e1df6c8053)"><g transform="matrix(1, 0, 0, 1, 237, 549)"><g clip-path="url(#a6c4f1ef71)"><g clip-path="url(#37d1f6bca6)"><g clip-path="url(#5428d36ea2)"><path fill="#0cc0df" d="M 0.574219 0.738281 L 303.535156 0.738281 L 303.535156 261 L 0.574219 261 Z M 0.574219 0.738281 " fill-opacity="1" fill-rule="nonzero"/></g></g></g></g></g></g><g clip-path="url(#0e6adaf990)"><g clip-path="url(#eaba157fec)"><g transform="matrix(1, 0, 0, 1, 0, 411)"><g clip-path="url(#32ff69bfe9)"><g clip-path="url(#77412b7a85)"><g clip-path="url(#ad29adb460)"><path fill="#0cc0df" d="M 0.9375 0.644531 L 303.898438 0.644531 L 303.898438 260.90625 L 0.9375 260.90625 Z M 0.9375 0.644531 " fill-opacity="1" fill-rule="nonzero"/></g></g></g></g></g></g><g clip-path="url(#680b97ed69)"><g clip-path="url(#36792be39f)"><g transform="matrix(1, 0, 0, 1, 0, 137)"><g clip-path="url(#993ed246e5)"><g clip-path="url(#ccbaebbcde)"><g clip-path="url(#8e4134b7b0)"><path fill="#0cc0df" d="M 0.9375 0.21875 L 303.898438 0.21875 L 303.898438 260.480469 L 0.9375 260.480469 Z M 0.9375 0.21875 " fill-opacity="1" fill-rule="nonzero"/></g></g></g></g></g></g></g></g></svg>